<?xml version="1.0" encoding="UTF-8"?>
<svg id="Layer_1" data-name="Layer 1" xmlns="http://www.w3.org/2000/svg" xmlns:xlink="http://www.w3.org/1999/xlink" viewBox="0 0 130 39">
  <defs>
    <style>
      .cls-1 {
        clip-path: url(#clippath);
      }

      .cls-2 {
        fill: none;
      }

      .cls-2, .cls-3, .cls-4 {
        stroke-width: 0px;
      }

      .cls-3 {
        fill: #f90;
      }

      .cls-3, .cls-4 {
        fill-rule: evenodd;
      }
    </style>
    <clipPath id="clippath">
      <rect class="cls-2" width="130" height="39"/>
    </clipPath>
  </defs>
  <g class="cls-1">
    <g>
      <path class="cls-3" d="m80.65,30.5c-7.55,5.55-18.51,8.49-27.93,8.49-12.59.06-24.75-4.56-34.1-12.96-.71-.62-.1-1.49.76-1.01,10.4,5.92,22.17,9.03,34.14,9.02,8.95-.04,17.8-1.85,26.04-5.31,1.28-.53,2.35.84,1.1,1.77Z"/>
      <path class="cls-3" d="m83.79,26.93c-.97-1.21-6.39-.58-8.82-.29-.74.09-.85-.55-.19-1.02,4.32-3.02,11.41-2.15,12.23-1.14.82,1.01-.22,8.08-4.27,11.47-.63.52-1.22.24-.94-.44.91-2.27,2.95-7.34,1.99-8.57Z"/>
      <path class="cls-4" d="m75.15,4.26V1.32c0-.1.02-.2.05-.29.04-.09.09-.17.16-.24.07-.07.15-.12.24-.16.09-.04.19-.05.29-.05h13.22c.1,0,.2.01.29.05s.18.09.25.16c.07.07.13.15.17.24.04.09.06.19.06.29v2.52c0,.4-.36.97-.99,1.85l-6.83,9.74c2.54-.06,5.23.32,7.54,1.62.21.11.38.28.51.48s.19.43.2.67v3.14c0,.43-.48.93-.97.67-2.16-1.11-4.56-1.68-6.99-1.68-2.43,0-4.83.59-6.98,1.7-.46.24-.94-.25-.94-.68v-2.99c-.04-.71.13-1.41.49-2.02l7.94-11.32h-6.9c-.1,0-.21,0-.3-.04-.1-.04-.18-.09-.26-.16-.07-.07-.13-.16-.17-.25-.04-.09-.06-.2-.05-.3Z"/>
      <path class="cls-4" d="m26.9,22.6h-4.02c-.18,0-.35-.08-.49-.21-.13-.12-.21-.29-.23-.47V1.37c0-.1.02-.2.06-.29.04-.09.1-.17.17-.24.07-.07.16-.12.25-.16.09-.04.19-.05.29-.05h3.75c.19,0,.36.08.5.21.13.13.22.3.23.48v2.68h.08c.97-2.59,2.82-3.81,5.28-3.81s4.09,1.21,5.22,3.81c.38-.98,1-1.84,1.82-2.49.82-.66,1.79-1.09,2.83-1.24,1.04-.16,2.1-.04,3.08.34.98.38,1.83,1.02,2.49,1.84,1.27,1.73,1.01,4.24,1.01,6.45v12.97c0,.2-.09.38-.23.52-.14.14-.33.21-.53.21h-4.02c-.19,0-.37-.09-.51-.23-.13-.14-.21-.32-.21-.51v-10.91c0-.86.08-3.03-.11-3.85-.3-1.39-1.22-1.77-2.37-1.77-.52.02-1.03.18-1.46.48-.43.3-.76.72-.95,1.2-.41,1.04-.37,2.77-.37,3.94v10.91c0,.1-.02.2-.06.29s-.1.17-.17.24c-.07.07-.16.12-.25.16-.09.04-.19.05-.29.05h-4.02c-.19,0-.38-.08-.52-.22s-.22-.32-.22-.51v-10.91c0-2.29.37-5.66-2.48-5.66s-2.78,3.29-2.78,5.66v10.91c0,.2-.09.38-.23.52-.14.14-.34.21-.53.21Z"/>
      <path class="cls-4" d="m101.26.2c5.96,0,9.21,5.1,9.21,11.59s-3.57,11.25-9.2,11.25-9.05-5.1-9.05-11.46S95.45.2,101.26.2Zm.04,4.21c-2.97,0-3.15,4.04-3.15,6.53s-.04,7.87,3.12,7.87,3.25-4.32,3.25-6.96c0-1.73-.08-3.81-.6-5.45-.43-1.44-1.33-1.99-2.61-1.99Z"/>
      <path class="cls-4" d="m118.21,22.6h-4.01c-.19,0-.38-.09-.51-.23-.13-.14-.21-.32-.21-.51V1.29c.02-.19.11-.36.26-.48.14-.12.33-.19.52-.19h3.73c.17,0,.32.06.45.17.13.1.22.25.26.41v3.14h.08c1.13-2.83,2.7-4.16,5.48-4.16,1.8,0,3.57.65,4.69,2.43,1.05,1.65,1.05,4.41,1.05,6.4v12.93c-.03.18-.12.35-.26.47-.14.12-.32.18-.51.18h-4.03c-.18,0-.34-.08-.47-.2-.13-.12-.21-.28-.24-.45v-11.15c0-2.25.26-5.54-2.52-5.54-.51.02-1,.19-1.41.48s-.73.7-.92,1.16c-.56,1.26-.64,2.51-.64,3.9v11.07c-.01.2-.1.39-.25.53-.15.14-.34.21-.54.21Z"/>
      <path class="cls-4" d="m64.59,12.79c0,1.56.04,2.86-.76,4.25-.64,1.13-1.66,1.82-2.79,1.82-1.54,0-2.44-1.17-2.44-2.91,0-3.41,3.07-4.04,5.98-4.04v.88Zm4.06,9.77c-.13.11-.29.18-.46.2-.17.02-.34-.02-.49-.11-1.34-1.11-1.58-1.62-2.31-2.67-2.21,2.24-3.77,2.91-6.63,2.91-3.39,0-6.02-2.08-6.02-6.24-.05-1.4.34-2.78,1.11-3.95.77-1.17,1.88-2.08,3.19-2.6,2.18-.95,5.23-1.13,7.57-1.39v-.52c0-.95.07-2.08-.49-2.91-.26-.34-.61-.62-1-.8-.39-.18-.82-.27-1.26-.25-1.53,0-2.9.78-3.25,2.43-.02.18-.1.35-.23.48-.13.13-.29.22-.47.25l-3.9-.4c-.1-.01-.19-.05-.27-.1-.08-.05-.15-.12-.21-.19-.06-.08-.1-.17-.12-.26-.02-.09-.02-.19,0-.29C54.3,1.45,58.57.03,62.4.03c1.96,0,4.51.52,6.06,1.99,1.96,1.82,1.77,4.25,1.77,6.9v6.21c0,1.88.78,2.7,1.52,3.71.26.36.31.81,0,1.06-.81.69-2.28,1.95-3.09,2.66h-.01Z"/>
      <path class="cls-4" d="m11.86,12.79c0,1.56.04,2.86-.75,4.25-.64,1.13-1.66,1.82-2.79,1.82-1.54,0-2.44-1.17-2.44-2.91,0-3.41,3.07-4.04,5.98-4.04v.88Zm4.06,9.77c-.13.11-.29.18-.46.2-.17.02-.34-.02-.49-.11-1.34-1.11-1.58-1.62-2.31-2.67-2.21,2.24-3.77,2.91-6.63,2.91C2.64,22.89,0,20.81,0,16.64c-.05-1.4.34-2.78,1.11-3.95.77-1.17,1.88-2.08,3.18-2.6,2.18-.95,5.23-1.13,7.56-1.39v-.52c0-.95.08-2.08-.49-2.91-.26-.34-.61-.62-1-.8-.39-.18-.82-.27-1.26-.25-1.53,0-2.9.78-3.25,2.43-.02.18-.1.35-.23.48-.13.13-.29.22-.47.25l-3.9-.4c-.1-.01-.19-.05-.27-.1-.08-.05-.15-.12-.21-.19-.06-.08-.1-.17-.12-.26s-.02-.19,0-.29C1.57,1.42,5.85,0,9.67,0c1.96,0,4.51.52,6.06,1.99,1.95,1.82,1.76,4.25,1.76,6.9v6.24c0,1.88.78,2.7,1.52,3.71.26.36.32.81,0,1.06-.81.69-2.28,1.95-3.09,2.66h-.02Z"/>
    </g>
  </g>
</svg>