<?xml version="1.0" encoding="UTF-8"?>
<svg id="Layer_1" data-name="Layer 1" xmlns="http://www.w3.org/2000/svg" viewBox="0 0 167.63 35.43">
  <defs>
    <style>
      .cls-1, .cls-2 {
        stroke-width: 0px;
      }

      .cls-2 {
        fill: #eb80a8;
      }
    </style>
  </defs>
  <path class="cls-1" d="m17.51,24.87l-1.87-5.28H6.94l-1.87,5.28H0L9.12,1.04h4.66l9.01,23.83h-5.28Zm-4.97-14.19c-.52-1.34-.93-2.8-1.14-3.73-.31.93-.83,2.28-1.24,3.73l-1.55,4.35h5.49l-1.55-4.35Zm21.96,14.19v-1.14c-.83.83-2.28,1.55-4.15,1.55-4.56,0-6.63-3.11-6.63-8.18V6.95h4.66v9.64c0,3.21,1.14,4.15,3,4.15,1.97,0,3.11-.93,3.11-4.04V6.95h4.66v17.82h-4.66v.1Zm16.48-.73c-.83.62-2.18,1.14-3.63,1.14-2.9,0-4.76-2.28-4.76-5.39V2.38l4.66-2.38v6.94h4.25v4.45h-4.25v7.15c0,1.66.62,2.18,1.76,2.18.83,0,1.45-.42,2.69-1.34l-.73,4.76Zm9.74,1.03c-4.66,0-8.08-3.83-8.08-9.33s3.42-9.33,8.08-9.33,8.08,3.83,8.08,9.33c.1,5.5-3.42,9.33-8.08,9.33Zm0-14.09c-2.28,0-3.31,2.07-3.31,4.76s1.03,4.76,3.31,4.76,3.31-2.28,3.31-4.76c.11-2.69-1.04-4.76-3.31-4.76Zm25.9,13.78l-8.7-13.06c-.62-.93-1.34-2.07-1.66-2.69,0,.93.1,3.83.1,5.18v10.46h-4.66V.93h4.56l8.39,12.54c.62.93,1.34,2.07,1.66,2.69,0-.93-.1-3.83-.1-5.18V1.04h4.66v23.83h-4.25Zm17.72,0v-1.14c-.83.93-2.39,1.55-4.04,1.55-3.31,0-6.63-2.07-6.63-6.32,0-3.94,3.21-5.91,7.25-5.91,1.66,0,2.69.31,3.42.73v-1.03c0-1.24-.83-2.28-2.59-2.28-2.18,0-3.31.31-4.87,1.14l-1.76-3.31c2.07-1.14,3.83-1.76,6.73-1.76,4.35,0,7.25,2.28,7.25,6.22v12.01h-4.76v.1Zm0-7.57c-.83-.52-1.55-.73-3.31-.73s-2.69.83-2.69,2.28c0,1.24.73,2.39,2.69,2.39,1.55,0,2.8-.83,3.31-1.66v-2.28Zm16.26,6.84c-.83.62-2.18,1.14-3.63,1.14-2.9,0-4.76-2.28-4.76-5.39V2.38l4.66-2.38v6.94h4.25v4.45h-4.25v7.15c0,1.66.62,2.18,1.76,2.18.83,0,1.45-.42,2.69-1.34l-.73,4.76Zm3.53.73V6.95h4.66v17.82h-4.66v.1Zm14.92.31c-4.66,0-8.08-3.83-8.08-9.33s3.42-9.33,8.08-9.33,8.08,3.83,8.08,9.33-3.43,9.33-8.08,9.33Zm0-14.09c-2.28,0-3.31,2.07-3.31,4.76s1.03,4.76,3.31,4.76,3.31-2.28,3.31-4.76c0-2.69-1.04-4.76-3.31-4.76Zm20.82,13.78v-9.64c0-3.21-1.14-4.15-3-4.15-1.97,0-3.11.93-3.11,4.04v9.74h-4.66V6.95h4.66v1.14c.83-.83,2.28-1.55,4.15-1.55,4.56,0,6.63,3.11,6.63,8.18v10.05h-4.66v.1Zm6.73-.11c-.62,0-1.03-.42-1.03-1.03s.42-1.03,1.03-1.03,1.04.42,1.04,1.03-.52,1.03-1.04,1.03Zm0-1.86c-.52,0-.83.42-.83.83,0,.52.42.83.83.83.52,0,.83-.42.83-.83,0-.52-.42-.83-.83-.83Zm.21.93l.21.42h-.21l-.21-.42h-.21v.42h-.21v-1.14h.52c.21,0,.42.1.42.31-.11.31-.21.42-.31.42Zm-.11-.52h-.31v.31h.31c.1,0,.21,0,.21-.21-.1,0-.1-.1-.21-.1Zm-22.69,5.07c-4.97,0-9.94,0-15.02.1-6.94.1-13.98.31-20.93.73-6.84.31-13.57.73-20.41,1.24-5.28.42-10.57.83-15.95,1.24h.42c5.7-.31,11.4-.62,17.09-.83,6.53-.31,13.16-.42,19.68-.62,4.04-.1,8.08-.1,12.12-.1h8.08c6.52,0,13.06.21,19.48.42,3,.1,5.91.21,8.91.42,1.14.1,2.38.1,3.52.21.62,0,1.24.1,1.87.1.21,0,.42.1.62.1.42,0,.72-.1.72-.62,0-.42,0-.73.1-1.14v-.1c0-.42-.1-.83-.62-.83-.62,0-1.14,0-1.76-.1-1.24,0-2.59-.1-3.83-.1-3-.1-6.01-.1-9.12-.1-1.46-.01-3.22-.01-4.98-.01Z"/>
  <path class="cls-2" d="m125.88,32.43h-4.56c-5.18,0-10.36.1-15.54.31-4.04.1-8.08.31-12.12.42h.31c4.35-.1,8.7-.1,13.06-.1h1.76c4.35,0,8.81.1,13.16.1,5.18.1,10.25.31,15.44.52,4.97.21,9.84.52,14.82.83,2.28.1,4.56.31,6.73.52.93.1,1.76.1,2.69.21.52,0,.93.1,1.45.1.1,0,.31.1.52.1s.52-.1.52-.42c0-.21,0-.52.1-.73v-.1c0-.31-.1-.52-.42-.52-.42,0-.93-.1-1.34-.1-.93-.1-1.97-.1-2.9-.21-2.28-.1-4.56-.21-6.94-.31-5.07-.21-10.25-.31-15.33-.42-3.72-.2-7.56-.2-11.39-.2Z"/>
</svg>