<?xml version="1.0" encoding="UTF-8"?>
<svg id="Layer_1" data-name="Layer 1" xmlns="http://www.w3.org/2000/svg" viewBox="0 0 111.46 46.7">
  <defs>
    <style>
      .cls-1 {
        stroke-width: 0px;
      }
    </style>
  </defs>
  <path class="cls-1" d="m61.81,22.86l.16.02c1.23.17,2.43.39,3.35.8.85.38,1.36.86,1.81,1.71.7,1.29.74,3.1.11,4.47-.47,1.02-1.5,1.87-2.44,2.32-.98.47-1.94.7-3.04.83-1.93.21-4.02-.19-5.75-1.03-1.03-.5-2.28-1.37-2.92-2.48-.47-.82-.45-1.88.11-2.65.9-1.24,2.84-1.51,4.29-1.46,1.11.04,3.11.39,4.17.76.29.11,1.37.53,1.56.72.13.13.22.33.16.51-.24.74-2.03,1.12-2.55,1.2-1.38.21-2.1-.31-3.68-.93-.39-.15-.91-.32-1.31-.36-.71-.07-1.58.13-1.71.91-.07.4.4.78.76.94.84.36,1.53.49,2.36.51,2.45.04,5.21-.36,7.22-1.79.28-.2.55-.48.55-.85,0-.73-1.27-1.18-1.27-1.18-1.35-.56-3.85-.84-5.14-.94-1.35-.12-3.48-.29-3.99-.37-.53-.08-1.1-.18-1.55-.39-.46-.21-.9-.67-1.04-1.18-.24-.92.07-2.05.58-2.79,1.34-1.93,4.48-2.66,6.83-2.95,2.27-.28,5.95-.28,8.18.91.34.18.52.36.45.72-.14.69-.67,1.14-1.3,1.33-.66.21-2.03.29-2.63.33-2.69.15-5.94.07-8.51.77-.2.06-.55.15-.66.28-.4.44.74.56.99.61l.16.03,5.66.67Zm-16.01-12s.44-.66.8-1.15c.67-.91,1.88-2.17,2.79-2.95.28-.24.61-.51.61-.51,0,0-.51.05-.8.11-.69.13-1.7.81-2.21,1.24-.83.71-1.75,1.88-1.34,2.91.06.15.15.34.15.34Zm4.64,1.24c1.32-.09,2.55-.47,3.7-1.11,1.13-.63,2.79-1.86,2.61-3.31-.05-.47-.36-.82-.75-.99-.5-.22-.76-.18-1.41,0-.47.14-.68.22-1.12.47-1.29.75-3.13,2.36-4.13,3.64-.23.3-.46.64-.64.87-.12.14-.2.27-.19.31.04.14,1.4.13,1.91.1Zm-3.36,2.47c-.14.14-.28.49-.43.74-.08.13-.23.31-.33.38-.34.25-.63.26-.97-.03-.46-.41-.73-1.05-.75-1.66,0-.27.04-.57-.02-.8-.08-.38-.47-.78-.68-1.15-.24-.43-.44-1.19-.46-1.67-.08-1.52.72-2.92,1.76-4.02,1.05-1.12,2.42-2.04,3.91-2.67,1.41-.59,3.47-1,5.02-.46.5.17,1.21.6,1.56,1.05.07.09.14.19.21.24.07.04.25.06.39.09.49.09,1.2.46,1.49.71.58.5.9.98,1.05,1.68.3,1.4-.51,2.94-1.43,3.88-1.58,1.61-3.13,2.75-5.15,3.54-.89.34-2.26.67-3.27.58-.31-.03-.63-.11-.94-.13-.15-.01-.72-.16-.78-.2l-.19-.09Zm1.8,3.11l.24.07c.71.27,1,.92,1.17,1.64.4,1.67.58,5.36.64,6.81.05,1.08.08,2.15.12,3.22.04.91.11,2.11-.08,2.97-.07.31-.27.66-.57.84-.34.21-1.1.23-1.52.14-1.03-.21-1.37-.88-1.52-1.9-.35-2.44-.18-7.24.02-9.26.07-.67.32-2.81.67-3.71.12-.3.37-.91.81-.83Zm-31.48,4.06s-1.54.11-2.6.23c-1.35.15-3.88.58-5.35,1.11-.44.16-1.33.53-1.41.98-.08.47.21.83.53,1.21.19.22,1.24,1.24,1.54,1.48,1.24,1.04,3.76,2.64,5.61,3.41.64.26,1.69.64,1.69.64,0,0-.08-3-.06-5.96,0-1.56.04-3.1.04-3.1Zm28.24,1.19c.09.81-.12,2.33-.15,2.53-.07.46-.42,1.53-.47,1.66-.28.65-.56,1.18-.86,1.71-.5.91-1.7,2.35-2.42,2.97-2.65,2.29-6.76,3.6-10.28,4.03-2.39.29-5.14.25-7.67-.22-.87-.16-2.17-.46-2.17-.46,0,0,0,.52-.04.88-.02.17-.14.6-.22.75-.18.38-.49.58-.92.66-.53.1-1.09.13-1.58-.08-.8-.34-1.09-1.09-1.23-1.96-.11-.7-.23-1.9-.23-1.9,0,0-.6-.29-1.1-.54-1.54-.76-3.01-1.68-4.29-2.63-.35-.27-1.88-1.54-2.22-1.86-.94-.9-1.79-1.79-2.44-2.93-.5-.89-.65-1.69-.26-2.63.53-1.32,2.42-2.31,3.71-2.88.95-.42,3.91-1.38,5.13-1.56.58-.08,1.48-.24,1.54-.28l.05-.05s.08-1.35.07-1.82c-.01-.47.35-3.56.46-4.21.06-.35.33-1.71.6-2.07.18-.24.49-.22.75-.06,1.41.88,1.83,3.91,1.94,5.46.06.94.1,2.36.1,2.36,0,0,1.61-.05,2.61-.02.97.02,2.03.18,3.03.34,1.28.2,3.78.75,5.22,1.48,1.18.6,2.29,1.61,2.64,2.68.33.98.28,1.66-.22,2.54-.57,1-1.65,1.74-2.74,1.8-.33.02-1.55-.14-1.93-.43-.15-.12-.14-.33-.03-.47.04-.05.61-.35.95-.53.17-.09.31-.19.44-.31.28-.25.53-.52.51-.84-.04-.41-.48-.67-.89-.83-1.96-.78-5.87-1.42-7.76-1.54-.74-.04-1.79-.08-1.79-.08l.22,10.43s.87.17,1.56.28c.39.06,2.06.21,2.5.22,3.37.09,7.14-.21,10.23-1.67,1.36-.64,2.6-1.43,3.55-2.51,1.24-1.43,1.89-3.38,1.72-5.42-.19-2.23-1.76-4.87-3.01-6.48-3.31-4.25-8.97-7.75-13.96-9.8-5.09-2.09-10.12-3.29-15.52-3.5-1.39-.05-4.43.02-5.96.44-.22.06-.44.14-.65.18-.16.04-.41.14-.48.2l-.08.07s.1.05.19.09c.16.07.85.11,1.2.18.32.06.65.23.78.46.12.22.14.39,0,.58-.35.42-1.66.35-2.23.26-.6-.1-1.34-.28-1.48-.8-.16-.61.13-1.22.45-1.77.63-1.11,1.54-1.69,2.87-2.06C5.25.45,7.63.09,9.41.02c4.03-.15,7.85.55,11.75,1.74,2.24.68,5.16,1.81,7.31,2.84,1.54.74,3.96,2.1,5.32,3,.43.28,2.94,2.13,3.33,2.45.81.67,1.88,1.62,2.65,2.39,1.49,1.48,3.35,3.75,4.25,5.54.22.43.38.85.66,1.35.1.17.51,1.19.58,1.49.07.29.17.72.18.74.02.16.21,1.04.2,1.37Zm50.69-2.31c-1.89.44-6.85.68-6.85.68l-.63,1.96s2.48-.21,4.29-.02c0,0,.58-.07.65.66.02.68-.06,1.41-.06,1.41,0,0-.04.44-.67.56-.68.11-5.35.29-5.35.29l-.76,2.56s-.28.59.35.42c.59-.16,5.48-1.07,6.11-.94.68.17,1.44,1.08,1.22,1.91-.26,1.03-5.14,4.14-8.12,3.92,0,0-1.56.1-2.88-2.01-1.23-2.01.47-5.81.47-5.81,0,0-.78-1.78-.21-2.38,0,0,.34-.31,1.31-.37l1.2-2.47s-1.36.09-2.17-.91c-.76-.95-.82-1.39-.24-1.65.62-.31,6.29-1.34,10.2-1.21,0,0,1.36-.13,2.53,2.22,0,0,.57.95-.4,1.18Zm-14.69,9.52c-.5,1.18-1.82,2.43-3.46,1.65-1.62-.78-4.2-6.07-4.2-6.07,0,0-.98-1.97-1.17-1.92,0,0-.21-.38-.34,1.77-.13,2.14.03,6.33-.83,6.98-.81.66-1.79.4-2.3-.37-.46-.76-.65-2.56-.4-5.73.3-3.18,1.03-6.56,1.98-7.61.94-1.05,1.7-.29,1.99-.01,0,0,1.26,1.14,3.34,4.49l.37.62s1.89,3.17,2.08,3.16c0,0,.15.14.29.04.2-.06.12-1.07.12-1.07,0,0-.39-3.45-2.11-9.29,0,0-.26-.73-.09-1.41.17-.69.87-.37.87-.37,0,0,2.67,1.34,3.96,5.69,1.29,4.35.42,8.27-.09,9.45Zm28.72-2.6c-1.21,2.12-4.64,6.56-9.2,5.51-1.51,3.65-2.77,7.34-3.49,12.87,0,0-.16,1.07-1.05.7-.88-.31-2.34-1.78-2.64-3.81-.32-2.67.87-7.19,3.3-12.37-.71-1.15-1.19-2.8-.78-5.14,0,0,.61-4.35,4.98-8.28,0,0,.53-.45.83-.31.33.14.18,1.56-.08,2.25-.28.68-2.22,4.06-2.22,4.06,0,0-1.22,2.28-.87,4.07,2.29-3.53,7.51-10.64,10.74-8.39,1.09.78,1.59,2.47,1.59,4.29,0,1.6-.38,3.3-1.1,4.57Zm-.94-5.58s-.18-1.4-1.55.14c-1.18,1.3-3.31,3.75-5.02,7.06,1.8-.2,3.53-1.18,4.05-1.67.85-.76,2.83-2.81,2.52-5.53Z"/>
</svg>