<svg width="38" height="38" viewBox="0 0 38 38" fill="none" xmlns="http://www.w3.org/2000/svg">
<path d="M24.4447 20.2646C25.2394 20.5127 26.0008 20.8555 26.7124 21.2855L26.6668 21.2592C27.4443 21.6019 28.1159 22.003 28.7287 22.474L28.7067 22.458C28.7361 22.5469 28.7537 22.6475 28.7537 22.754L28.7523 22.8007V22.7992C28.7302 23.4248 28.5906 24.0125 28.354 24.5477L28.3657 24.5171C28.0262 25.1923 27.4604 25.7129 26.7682 25.99L26.7476 25.9973C26.0314 26.3689 25.2393 26.5739 24.4315 26.5967H24.4226C22.8806 26.4 21.3903 25.914 20.0313 25.1646L20.0945 25.1967C18.651 24.5478 17.3383 23.644 16.2205 22.5294L16.219 22.528C14.9997 21.2683 13.8942 19.9048 12.9152 18.4534L12.8461 18.3455C11.8746 17.0853 11.3109 15.5624 11.2295 13.9778L11.228 13.9588V13.778C11.2496 13.1011 11.4097 12.4356 11.6988 11.8221C11.9878 11.2086 12.3997 10.6599 12.9093 10.2094L12.9137 10.2051C13.2285 9.89384 13.6525 9.71563 14.0968 9.70778H14.0983C14.2467 9.71216 14.3893 9.72382 14.5274 9.74424L14.5083 9.74132C14.6362 9.76028 14.7846 9.77195 14.9374 9.77487H14.9418C15.1558 9.75422 15.3705 9.8067 15.5503 9.92362L15.5473 9.92216C15.7046 10.0942 15.8251 10.3028 15.8971 10.5317L15.9001 10.5434C16.0216 10.8448 16.2724 11.5078 16.6525 12.5326C16.8509 12.9905 17.0449 13.5549 17.2007 14.1353L17.2213 14.2271C17.1153 14.7347 16.8392 15.1917 16.438 15.5236L16.4336 15.5265C15.9094 16.0768 15.6473 16.4268 15.6473 16.5765C15.6529 16.6993 15.6942 16.8178 15.7663 16.9178L15.7649 16.9163C16.3333 18.0823 17.1192 19.1309 18.081 20.0065L18.0884 20.0138C19.0953 20.9139 20.2242 21.6698 21.4422 22.2596L21.5289 22.2975C21.6778 22.3934 21.8497 22.4483 22.0271 22.4565H22.03C22.2583 22.4565 22.6688 22.0909 23.2616 21.3598C23.8544 20.6287 24.2482 20.2632 24.4432 20.2632L24.4447 20.2646ZM19.8197 32.2463H19.852C21.7818 32.249 23.6909 31.8521 25.4573 31.0811L25.3676 31.1161C28.8302 29.6665 31.5299 26.9875 32.9555 23.6436L32.9908 23.5517C33.7109 21.9286 34.1298 20.0357 34.1298 18.0465C34.1298 16.0573 33.7109 14.1644 32.9555 12.4509L32.9908 12.5413C31.5299 9.10549 28.8302 6.42654 25.4602 5.01196L25.3676 4.97696C23.7319 4.26238 21.8243 3.84676 19.8197 3.84676C17.815 3.84676 15.9074 4.26238 14.1806 5.01196L14.2717 4.97696C10.8092 6.42654 8.10939 9.10549 6.68381 12.4494L6.64854 12.5413C5.89078 14.2851 5.50307 16.165 5.50955 18.064C5.50481 21.0665 6.47293 23.9909 8.27105 26.4057L8.24312 26.3677L6.44279 31.6367L11.957 29.8954C14.2605 31.435 16.9762 32.2538 19.7535 32.2463H19.8226H19.8197ZM19.8197 1.0001H19.8682C22.2608 1.0001 24.5358 1.49885 26.5919 2.39864L26.4846 2.35635C30.6364 4.10197 33.874 7.31466 35.5906 11.3236L35.6332 11.4344C36.4974 13.3842 37 15.6578 37 18.048C37 20.4382 36.4974 22.7117 35.5906 24.7694L35.6332 24.6615C33.874 28.7813 30.6364 31.994 26.5963 33.6973L26.4846 33.7396C24.5343 34.5971 22.2593 35.0958 19.8667 35.0958H19.8167H19.8197H19.7418C16.7157 35.0958 13.8749 34.3069 11.4176 32.9258L11.5014 32.9696L2 36L5.09952 26.8432C3.48158 24.2022 2.63021 21.1692 2.6393 18.0786C2.6393 15.6782 3.14193 13.3944 4.04871 11.3251L4.00609 11.4344C5.76527 7.31466 9.00294 4.10197 13.043 2.39864L13.1547 2.35635C15.2421 1.45407 17.4958 0.992223 19.7726 1.0001H19.8211H19.8182H19.8197Z" fill="#3E4957"/>
</svg>
