<svg width="38" height="38" viewBox="0 0 38 38" fill="none" xmlns="http://www.w3.org/2000/svg">
<path fill-rule="evenodd" clip-rule="evenodd" d="M4.98219 5.72221C4.22729 5.72221 3.61108 6.33842 3.61108 7.09333V29.2178C3.61108 29.9727 4.22729 30.5889 4.98219 30.5889H32.9544C33.7093 30.5889 34.3255 29.9727 34.3255 29.2178V7.09333C34.3255 6.33842 33.7093 5.72221 32.9544 5.72221H4.98219ZM0.611084 7.09333C0.611084 4.68156 2.57043 2.72221 4.98219 2.72221H32.9544C35.3662 2.72221 37.3255 4.68157 37.3255 7.09333V29.2178C37.3255 31.6295 35.3662 33.5889 32.9544 33.5889H4.98219C2.57043 33.5889 0.611084 31.6295 0.611084 29.2178V7.09333Z" fill="#3E4957"/>
<path d="M11 13C12.1046 13 13 12.1046 13 11C13 9.89548 12.1046 9.00005 11 9.00005C9.89543 9.00005 9 9.89548 9 11C9 12.1046 9.89543 13 11 13Z" fill="#3E4957"/>
<path fill-rule="evenodd" clip-rule="evenodd" d="M29.5555 19.9302H8.84546V16.9302H29.5555V19.9302Z" fill="#3E4957"/>
<path fill-rule="evenodd" clip-rule="evenodd" d="M29.5555 26.7911H8.84546V23.7911H29.5555V26.7911Z" fill="#3E4957"/>
<path fill-rule="evenodd" clip-rule="evenodd" d="M29.5555 13.3223H17.2688V10.3223H29.5555V13.3223Z" fill="#3E4957"/>
</svg>
