<svg width="38" height="38" viewBox="0 0 38 38" fill="none" xmlns="http://www.w3.org/2000/svg">
<path fill-rule="evenodd" clip-rule="evenodd" d="M36.5001 1.22949V26.1113H33.5001V4.77087L15.1667 7.82643V29.6668H12.1667V5.28505L36.5001 1.22949Z" fill="#3E4957"/>
<path fill-rule="evenodd" clip-rule="evenodd" d="M8.33333 25.8336C6.21624 25.8336 4.5 27.5498 4.5 29.6669C4.5 31.784 6.21624 33.5002 8.33333 33.5002C10.4504 33.5002 12.1667 31.784 12.1667 29.6669C12.1667 27.5498 10.4504 25.8336 8.33333 25.8336ZM1.5 29.6669C1.5 25.8929 4.55939 22.8336 8.33333 22.8336C12.1073 22.8336 15.1667 25.8929 15.1667 29.6669C15.1667 33.4408 12.1073 36.5002 8.33333 36.5002C4.55939 36.5002 1.5 33.4408 1.5 29.6669Z" fill="#3E4957"/>
<path fill-rule="evenodd" clip-rule="evenodd" d="M29.6666 22.2779C27.5495 22.2779 25.8333 23.9942 25.8333 26.1113C25.8333 28.2283 27.5495 29.9446 29.6666 29.9446C31.7837 29.9446 33.4999 28.2283 33.4999 26.1113C33.4999 23.9942 31.7837 22.2779 29.6666 22.2779ZM22.8333 26.1113C22.8333 22.3373 25.8926 19.2779 29.6666 19.2779C33.4405 19.2779 36.4999 22.3373 36.4999 26.1113C36.4999 29.8852 33.4405 32.9446 29.6666 32.9446C25.8926 32.9446 22.8333 29.8852 22.8333 26.1113Z" fill="#3E4957"/>
</svg>
