<svg width="50" height="50" viewBox="0 0 50 50" fill="none" xmlns="http://www.w3.org/2000/svg">
<path fill-rule="evenodd" clip-rule="evenodd" d="M24.7845 21.2691C19.8321 21.2691 15.0364 22.9263 11.2312 25.9527L8.58537 22.9196C13.1335 19.3025 18.8654 17.3217 24.7845 17.3217C30.7036 17.3217 36.4355 19.3025 40.9835 22.9196L38.3377 25.9527C34.5325 22.9263 29.7368 21.2691 24.7845 21.2691Z" fill="#3E4957"/>
<path fill-rule="evenodd" clip-rule="evenodd" d="M24.6999 11.1817C16.9712 11.1817 9.50803 13.8742 3.71022 18.754L0.976562 15.7928C7.52947 10.2774 15.9647 7.23438 24.6999 7.23438C33.4352 7.23438 41.8704 10.2774 48.4233 15.7928L45.6897 18.754C39.8918 13.8742 32.4286 11.1817 24.6999 11.1817Z" fill="#3E4957"/>
<path fill-rule="evenodd" clip-rule="evenodd" d="M24.7105 31.3557C22.508 31.3557 20.3601 32.01 18.5647 33.228L16.1703 30.0101C18.6653 28.3176 21.65 27.4083 24.7105 27.4083C27.771 27.4083 30.7557 28.3176 33.2507 30.0101L30.8563 33.228C29.0609 32.01 26.913 31.3557 24.7105 31.3557Z" fill="#3E4957"/>
<path d="M27.9471 39.4677C27.9471 40.9211 26.7131 42.0993 25.191 42.0993C23.6689 42.0993 22.435 40.9211 22.435 39.4677C22.435 38.0143 23.6689 36.8361 25.191 36.8361C26.7131 36.8361 27.9471 38.0143 27.9471 39.4677Z" fill="#3E4957"/>
</svg>
