<svg width="50" height="50" viewBox="0 0 50 50" fill="none" xmlns="http://www.w3.org/2000/svg">
<path fill-rule="evenodd" clip-rule="evenodd" d="M9.02963 8.08861C8.11579 8.08861 7.36986 8.83454 7.36986 9.74838V36.5306C7.36986 37.4444 8.11579 38.1904 9.02963 38.1904H42.8907C43.8046 38.1904 44.5505 37.4444 44.5505 36.5306V9.74838C44.5505 8.83454 43.8046 8.08861 42.8907 8.08861H9.02963ZM3.73828 9.74838C3.73828 6.82888 6.11013 4.45703 9.02963 4.45703H42.8907C45.8102 4.45703 48.1821 6.82888 48.1821 9.74838V36.5306C48.1821 39.4501 45.8102 41.8219 42.8907 41.8219H9.02963C6.11013 41.8219 3.73828 39.4501 3.73828 36.5306V9.74838Z" fill="#3E4957"/>
<path fill-rule="evenodd" clip-rule="evenodd" d="M17.5999 17.1484L38.2442 39.4377L35.5798 41.9054L17.7375 22.6413L7.10095 35.3461L4.31641 33.0148L17.5999 17.1484Z" fill="#3E4957"/>
<path fill-rule="evenodd" clip-rule="evenodd" d="M34.3326 20.4961L47.6512 33.8147L45.0833 36.3826L34.533 25.8322L29.5228 31.6571L26.7695 29.289L34.3326 20.4961Z" fill="#3E4957"/>
<path d="M35.0771 16.9472C36.7485 16.9472 38.1034 15.5922 38.1034 13.9208C38.1034 12.2495 36.7485 10.8945 35.0771 10.8945C33.4057 10.8945 32.0508 12.2495 32.0508 13.9208C32.0508 15.5922 33.4057 16.9472 35.0771 16.9472Z" fill="#3E4957"/>
</svg>
