<svg width="50" height="50" viewBox="0 0 50 50" fill="none" xmlns="http://www.w3.org/2000/svg">
<path fill-rule="evenodd" clip-rule="evenodd" d="M29.832 11.918H36.1654C43.3682 11.918 49.1897 17.7458 49.2224 24.9382L49.2224 24.9472C49.2224 32.1794 43.3633 38.0042 36.1654 38.0042H29.832V34.0569H36.1654C41.1882 34.0569 45.2727 29.9952 45.275 24.9515C45.2497 19.9239 41.1832 15.8653 36.1654 15.8653H29.832V11.918Z" fill="#3E4957"/>
<path fill-rule="evenodd" clip-rule="evenodd" d="M0.804688 24.975C0.804688 17.7461 6.63278 11.918 13.8617 11.918H20.2784V15.8653H13.8617C8.81285 15.8653 4.75206 19.9261 4.75206 24.975C4.75206 29.9993 8.81607 34.0846 13.8617 34.0846H20.2784V38.032H13.8617C6.62956 38.032 0.804688 32.1729 0.804688 24.975Z" fill="#3E4957"/>
<path fill-rule="evenodd" clip-rule="evenodd" d="M36.9701 26.9435H13.1367V22.9961H36.9701V26.9435Z" fill="#3E4957"/>
</svg>
