<svg width="51" height="51" viewBox="0 0 51 51" fill="none" xmlns="http://www.w3.org/2000/svg">
<g clip-path="url(#clip0_1543_151711)">
<path fill-rule="evenodd" clip-rule="evenodd" d="M4.56641 45.3785V38.9062H8.51377V45.2937H41.8164V38.9062H45.7638V45.3785C45.7638 47.5429 44.0001 49.241 41.9012 49.241H8.42898C6.26454 49.241 4.56641 47.4773 4.56641 45.3785Z" fill="#3E4957"/>
<path fill-rule="evenodd" clip-rule="evenodd" d="M9.67898 4.90831C9.04679 4.90831 8.51377 5.44132 8.51377 6.07351V17.2957H4.56641V6.07351C4.56641 3.26125 6.86672 0.960938 9.67898 0.960938H33.8179C35.1713 0.960938 36.4799 1.49986 37.4357 2.45568L44.9357 9.95568C45.7165 10.7364 46.1804 11.8193 46.1804 12.9624V17.2957H42.2331V12.9624C42.2331 12.8832 42.1971 12.7995 42.1445 12.7469L34.6445 5.24689C34.4336 5.03605 34.1311 4.90831 33.8179 4.90831H9.67898Z" fill="#3E4957"/>
<path d="M17.3056 21.487C16.9167 21.0703 16.4444 20.7092 15.8611 20.4592C15.2778 20.2092 14.5833 20.0703 13.7778 20.0703H7.5V36.1259H11.6944V30.0148H13.1667C14.8889 30.0148 16.1944 29.5981 17.0833 28.7648C17.9722 27.9314 18.4167 26.6814 18.4167 25.0148C18.4167 24.3203 18.3333 23.6814 18.1389 23.0703C17.9722 22.4592 17.6944 21.9314 17.3056 21.487ZM13.6944 26.5148C13.4167 26.8203 13.0278 26.987 12.5 26.987H11.6944V23.0981H12.4722C13.5556 23.0981 14.0833 23.737 14.0833 25.0425C14.0833 25.7092 13.9722 26.2092 13.6944 26.5148Z" fill="#3E4957"/>
<path d="M20.3047 20.0703V36.1259H26.3602C27.5825 36.1259 28.5269 35.9036 29.1936 35.4592C29.8602 35.0148 30.388 34.4314 30.7214 33.6814C31.0547 32.9314 31.2491 32.0981 31.3325 31.1259C31.4158 30.1536 31.4436 29.1536 31.4436 28.0981C31.4436 27.0425 31.4158 26.0425 31.3325 25.0703C31.2491 24.0981 31.0547 23.2648 30.7214 22.5148C30.388 21.7648 29.888 21.1814 29.1936 20.737C28.4991 20.2925 27.5825 20.0703 26.3602 20.0703H20.3047ZM26.8325 23.9592C26.9714 24.3203 27.0547 24.8203 27.0825 25.487C27.1102 26.1536 27.138 27.0148 27.138 28.0981C27.138 29.1814 27.1102 30.0425 27.0825 30.7092C27.0547 31.3759 26.9714 31.8759 26.8325 32.237C26.6936 32.5981 26.5269 32.8203 26.2769 32.9592C26.0269 33.0703 25.7214 33.1259 25.3047 33.1259H24.4714V23.0703H25.3047C25.7214 23.0703 26.0269 23.1259 26.2769 23.237C26.5269 23.3759 26.6936 23.5981 26.8325 23.9592Z" fill="#3E4957"/>
<path d="M37.9562 29.5148H42.9284V26.237H37.9562V23.487H43.2895V20.0703H33.7617V36.1259H37.9562V29.5148Z" fill="#3E4957"/>
</g>
<defs>
<clipPath id="clip0_1543_151711">
<rect width="50" height="50" fill="white" transform="translate(0.992188 0.15625)"/>
</clipPath>
</defs>
</svg>
