<?xml version="1.0" encoding="UTF-8"?>
<svg id="Layer_1" data-name="Layer 1" xmlns="http://www.w3.org/2000/svg" xmlns:xlink="http://www.w3.org/1999/xlink" viewBox="0 0 160 29">
  <defs>
    <style>
      .cls-1 {
        clip-path: url(#clippath);
      }

      .cls-2 {
        fill: none;
      }

      .cls-2, .cls-3 {
        stroke-width: 0px;
      }

      .cls-3 {
        fill: #de1e34;
        fill-rule: evenodd;
      }
    </style>
    <clipPath id="clippath">
      <rect class="cls-2" width="160" height="29"/>
    </clipPath>
  </defs>
  <g class="cls-1">
    <g>
      <path class="cls-3" d="m144.98,22.13h6.08V0h-6.08v22.13Z"/>
      <path class="cls-3" d="m160,0v22.13h-6.08V0h6.08Z"/>
      <path class="cls-3" d="m12.96,8.6h-4.92V0H0v22.13h8.04v-10.98h4.92v10.98h8.05V0h-8.05v8.6Z"/>
      <path class="cls-3" d="m50.73,8.23l-.49-1.46h-6.61v15.37h6.61v-9.24c0-2.01,1.25-3.11,2.32-3.11.89,0,2.06.18,2.06,2.2v10.15h6.61v-9.97c0-5.58-6.12-7.77-10.5-3.93Z"/>
      <path class="cls-3" d="m118.66,15.69l-3.08-8.92h-4.51l-3.08,9.28-3.22-9.28h-8.85l-3.17,7.82-4.47-7.82h-7.55l8.89,15.55-1.16,2.93c-.4.92-1.37.96-1.55.09,0-1.57-1.25-2.84-2.78-2.84s-2.78,1.27-2.78,2.84c.01,1.65,1.62,3.8,4.79,3.66,3.17-.14,4.51-2.83,4.96-3.98l7.35-18.19,5.3,15.31h4.83l2.95-8.83,3.04,8.83h4.56l5.14-15.37h-2.64l-2.95,8.92Z"/>
      <path class="cls-3" d="m32.4,5.99c-5.06,0-9.16,3.85-9.16,8.6s4.1,8.6,9.16,8.6,9.17-3.85,9.17-8.6-4.1-8.6-9.17-8.6Zm2.28,12.62c0,1.29-1.02,2.33-2.28,2.33s-2.28-1.04-2.28-2.33v-8.05c0-1.29,1.02-2.33,2.28-2.33s2.28,1.04,2.28,2.33v8.05Z"/>
      <path class="cls-3" d="m81.45,15.82c.05-.36.07-.86.07-1.23,0-4.75-4.1-8.6-9.16-8.6s-9.17,3.85-9.17,8.6,4.1,8.6,9.17,8.6c3.48,0,6.5-1.82,8.06-4.5l-2.02-.77c-1.22,1.91-3.47,3.19-6.03,3.19-1.26,0-2.28-1.22-2.28-2.51v-2.79h11.37Zm-11.37-5.26c0-1.29,1.02-2.33,2.28-2.33s2.28,1.04,2.28,2.33v3.06h-4.56v-3.06Z"/>
      <path class="cls-3" d="m142.68,15.82c.05-.36.07-.86.07-1.23,0-4.75-4.1-8.6-9.17-8.6s-9.16,3.85-9.16,8.6,4.1,8.6,9.16,8.6c3.48,0,6.5-1.82,8.06-4.5l-2.02-.77c-1.22,1.91-3.47,3.19-6.03,3.19-1.26,0-2.28-1.22-2.28-2.51v-2.79h11.37Zm-11.37-5.26c0-1.29,1.02-2.33,2.28-2.33s2.28,1.04,2.28,2.33v3.06h-4.56v-3.06Z"/>
    </g>
  </g>
</svg>