<svg width="83" height="84" viewBox="0 0 83 84" fill="none" xmlns="http://www.w3.org/2000/svg">
<path d="M78 42.1106C78 41.9915 78 41.8723 78 41.7532C77.9892 36.8473 77.8159 29.0066 77.8159 29.0066C77.8159 22.8228 72.1952 18.1335 67.3977 17.4837C59.8276 16.4657 52.1493 16.1841 43.6155 16.0108C43.2797 16.0108 42.944 16.0108 42.5975 16C42.5975 16 42.5325 16 42.5 16C42.4675 16 42.435 16 42.4025 16C42.0668 16 41.7203 16 41.3845 16.0108C32.8507 16.1841 25.1832 16.4657 17.6023 17.4837C12.8048 18.1335 7.18411 22.8228 7.18411 29.0066C7.18411 29.0066 7.01083 36.8473 7 41.7532C7 41.8615 7 41.9915 7 42.1106C7 42.2297 7 42.3488 7 42.468C7.01083 47.3739 7.18411 55.2146 7.18411 55.2146C7.18411 61.3984 12.8048 66.0877 17.6023 66.7375C25.1724 67.7555 32.8507 68.0371 41.3845 68.2103C41.7203 68.2103 42.056 68.2103 42.4025 68.2212C42.4025 68.2212 42.4675 68.2212 42.5 68.2212C42.5325 68.2212 42.565 68.2212 42.5975 68.2212C42.9332 68.2212 43.2797 68.2212 43.6155 68.2103C52.1493 68.0371 59.8168 67.7555 67.3977 66.7375C72.1952 66.0877 77.8159 61.3984 77.8159 55.2146C77.8159 55.2146 77.9892 47.3739 78 42.468C78 42.3597 78 42.2297 78 42.1106V42.1106Z" stroke="#9B27AF" stroke-width="6" stroke-linejoin="round"/>
<path d="M54.3435 42.1113L34.6875 30.7617V53.4609L54.3435 42.1113Z" stroke="#9B27AF" stroke-width="6" stroke-linejoin="round"/>
</svg>
