<svg width="83" height="84" viewBox="0 0 83 84" fill="none" xmlns="http://www.w3.org/2000/svg">
<path fill-rule="evenodd" clip-rule="evenodd" d="M6.39453 75.1644V64.5176H12.8805V75.0249H67.6005V64.5176H74.0865V75.1644C74.0865 78.7249 71.1885 81.5183 67.7398 81.5183H12.7412C9.18476 81.5183 6.39453 78.617 6.39453 75.1644Z" fill="#9C27B0"/>
<path fill-rule="evenodd" clip-rule="evenodd" d="M14.7951 8.59108C13.7563 8.59108 12.8805 9.46789 12.8805 10.5078V28.9684H6.39453V10.5078C6.39453 5.88168 10.1742 2.09766 14.7951 2.09766H54.458C56.6819 2.09766 58.832 2.98418 60.4025 4.55651L72.7259 16.894C74.0087 18.1784 74.7711 19.9597 74.7711 21.8401V28.9684H68.2852V21.8401C68.2852 21.7098 68.226 21.572 68.1396 21.4856L55.8162 9.14805C55.4698 8.80122 54.9727 8.59108 54.458 8.59108H14.7951Z" fill="#9C27B0"/>
<path d="M50.036 34L60.493 34C67.4816 34 73.2031 39.7216 73.2031 46.7101C73.2031 53.6987 67.4816 59.4203 60.493 59.4203L50.036 59.4203" stroke="#9B27AF" stroke-width="6" stroke-miterlimit="10" stroke-linecap="square"/>
<path d="M31.1641 59.4203L20.707 59.4203C13.7185 59.4203 7.9969 53.6987 7.9969 46.7101C7.9969 39.7216 13.7185 34 20.707 34L31.1641 34" stroke="#9B27AF" stroke-width="6" stroke-miterlimit="10" stroke-linecap="square"/>
<path d="M53 46.7109L27 46.7109" stroke="#9B27AF" stroke-width="6" stroke-miterlimit="10" stroke-linecap="square"/>
</svg>
