<svg width="39" height="38" viewBox="0 0 39 38" fill="none" xmlns="http://www.w3.org/2000/svg">
<path d="M32.4206 5.32172H21.2023C21.5199 6.04676 21.7692 6.8079 21.9307 7.60172H31.9487L7.34062 32.2098V23.9296C6.71515 23.3314 5.91258 22.5182 5.06063 21.5565V32.6817C5.06063 35.1962 7.10578 37.2417 9.62063 37.2417H32.4206C34.9355 37.2417 36.9806 35.1962 36.9806 32.6817V9.88172C36.9806 7.36726 34.9355 5.32172 32.4206 5.32172ZM9.62063 34.9617C9.11257 34.9617 8.64745 34.7888 8.26783 34.5065L21.0206 21.7537L26.2487 26.9817L18.2687 34.9617H9.62063ZM32.4206 34.9617H21.4926L27.8606 28.5937L33.7734 34.5065C33.3938 34.7888 32.9287 34.9617 32.4206 34.9617ZM34.7006 32.2098L22.6326 20.1417L34.2454 8.52892C34.5277 8.90854 34.7006 9.37328 34.7006 9.88172V32.2098ZM10.7606 23.5617C10.4969 23.5617 10.2317 23.4705 10.0192 23.2874C9.6761 22.994 1.64062 16.0354 1.64062 9.88172C1.64062 4.85318 5.73209 0.761719 10.7606 0.761719C15.7892 0.761719 19.8806 4.85318 19.8806 9.88172C19.8806 16.0354 11.8451 22.994 11.502 23.2874C11.2896 23.4705 11.0243 23.5617 10.7606 23.5617ZM10.7606 3.04172C6.98875 3.04172 3.92062 6.10984 3.92062 9.88172C3.92062 13.6863 8.33243 18.6111 10.7606 20.8877C13.1888 18.6111 17.6006 13.6863 17.6006 9.88172C17.6006 6.10984 14.5325 3.04172 10.7606 3.04172ZM10.7606 14.4417C8.24578 14.4417 6.20062 12.3962 6.20062 9.88172C6.20062 7.36726 8.24578 5.32172 10.7606 5.32172C13.2755 5.32172 15.3206 7.36726 15.3206 9.88172C15.3206 12.3962 13.2755 14.4417 10.7606 14.4417ZM10.7606 7.60172C9.50358 7.60172 8.48063 8.6243 8.48063 9.88172C8.48063 11.1391 9.50358 12.1617 10.7606 12.1617C12.0177 12.1617 13.0406 11.1391 13.0406 9.88172C13.0406 8.6243 12.0177 7.60172 10.7606 7.60172Z" fill="#9B27AF"/>
</svg>
