<svg width="39" height="39" viewBox="0 0 39 39" fill="none" xmlns="http://www.w3.org/2000/svg">
<path d="M33.8719 0.300781H5.12806C2.57612 0.300781 0.5 2.3769 0.5 4.92884V33.6726C0.5 36.2247 2.57612 38.3008 5.12806 38.3008H19.8607C20.4804 38.3008 20.9827 37.7984 20.9827 37.1787V23.5737C20.9827 22.9541 20.4804 22.4517 19.8607 22.4517H15.8276V19.2578H19.8607C20.4804 19.2578 20.9827 18.7554 20.9827 18.1358V13.5942C20.9827 11.1363 22.9823 9.13675 25.4402 9.13675H29.3318V12.3306H25.4402C24.7436 12.3306 24.1767 12.8976 24.1767 13.5942V18.1358C24.1767 18.7555 24.6791 19.2579 25.2987 19.2579H29.3318V22.4517H25.2987C24.6791 22.4517 24.1767 22.9541 24.1767 23.5738V37.1788C24.1767 37.7985 24.6791 38.3009 25.2987 38.3009H33.8719C36.4239 38.3008 38.5 36.2247 38.5 33.6727V4.92884C38.5 2.3769 36.4239 0.300781 33.8719 0.300781ZM36.2559 33.6727C36.2559 34.9873 35.1865 36.0568 33.8719 36.0568H26.4207H26.4206V24.6957H30.4537C31.0734 24.6957 31.5758 24.1934 31.5758 23.5737V18.1358C31.5758 17.5162 31.0734 17.0138 30.4537 17.0138H26.4206V14.5747H30.4537C31.0734 14.5747 31.5758 14.0723 31.5758 13.4526V8.01478C31.5758 7.39513 31.0734 6.89274 30.4537 6.89274H25.4402C21.745 6.89274 18.7387 9.89905 18.7387 13.5942V17.0138H14.7055C14.0859 17.0138 13.5835 17.5162 13.5835 18.1358V23.5737C13.5835 24.1934 14.0859 24.6957 14.7055 24.6957H18.7387V36.0567H5.12806C3.8135 36.0567 2.744 34.9873 2.744 33.6726V4.92884C2.744 3.61428 3.81342 2.54479 5.12806 2.54479H33.8719C35.1864 2.54479 36.2559 3.6142 36.2559 4.92884V33.6727Z" fill="#9B27AF"/>
</svg>
