<svg width="20" height="20" viewBox="0 0 24 25" fill="currentColor" xmlns="http://www.w3.org/2000/svg"><g clip-path="url(#g)"><path d="M12 .082c-3.257 0-3.666.015-4.946.072-1.279.06-2.15.261-2.914.558-.8.301-1.526.774-2.125 1.385A5.89 5.89 0 0 0 .63 4.222c-.297.762-.5 1.635-.558 2.91C.015 8.415 0 8.822 0 12.084c0 3.258.015 3.665.072 4.945.06 1.278.261 2.15.558 2.913a5.894 5.894 0 0 0 1.385 2.125 5.856 5.856 0 0 0 2.123 1.385c.766.297 1.636.5 2.913.558 1.281.057 1.69.072 4.949.072 3.26 0 3.666-.015 4.947-.072 1.277-.06 2.151-.261 2.915-.558a5.874 5.874 0 0 0 2.123-1.385 5.894 5.894 0 0 0 1.385-2.125c.296-.764.498-1.635.558-2.913.057-1.28.072-1.688.072-4.947 0-3.26-.015-3.667-.072-4.948-.06-1.277-.262-2.15-.558-2.912a5.89 5.89 0 0 0-1.385-2.125A5.867 5.867 0 0 0 19.86.712c-.765-.297-1.638-.5-2.915-.558-1.28-.057-1.687-.072-4.948-.072h.005H12Zm-1.075 2.163H12c3.205 0 3.584.01 4.848.069 1.17.053 1.806.249 2.23.413.559.217.96.478 1.38.898.42.42.679.819.896 1.38.165.422.36 1.058.413 2.228.058 1.264.07 1.644.07 4.846s-.012 3.583-.07 4.848c-.053 1.17-.249 1.805-.413 2.227-.192.522-.499.993-.898 1.379-.42.42-.819.68-1.38.897-.42.165-1.056.36-2.228.414-1.264.057-1.643.07-4.848.07-3.204 0-3.585-.013-4.849-.07-1.17-.054-1.804-.249-2.228-.414a3.716 3.716 0 0 1-1.38-.897 3.72 3.72 0 0 1-.9-1.38c-.163-.421-.36-1.057-.412-2.227-.057-1.265-.069-1.644-.069-4.85 0-3.204.012-3.582.069-4.846.054-1.17.249-1.806.414-2.23.218-.559.478-.96.899-1.38.42-.42.819-.679 1.38-.896.423-.165 1.057-.36 2.227-.414 1.107-.051 1.536-.066 3.772-.068v.003Zm7.482 1.992a1.44 1.44 0 1 0 0 2.88 1.44 1.44 0 0 0 0-2.88ZM12.002 5.92a6.163 6.163 0 1 0-.193 12.325 6.163 6.163 0 0 0 .193-12.325Zm0 2.162a4 4 0 1 1 0 8 4 4 0 0 1 0-8Z" fill="#currentColor"></path></g><defs><clipPath id="g"><path fill="#fff" transform="translate(0 .082)" d="M0 0h24v24H0z"></path></clipPath></defs></svg>