<?xml version="1.0" encoding="UTF-8"?>
<svg id="Layer_1" data-name="Layer 1" xmlns="http://www.w3.org/2000/svg" xmlns:xlink="http://www.w3.org/1999/xlink" viewBox="0 0 144 35">
  <defs>
    <style>
      .cls-1 {
        clip-path: url(#clippath);
      }

      .cls-2 {
        fill: none;
      }

      .cls-2, .cls-3, .cls-4 {
        stroke-width: 0px;
      }

      .cls-5 {
        mask: url(#mask);
      }

      .cls-6 {
        mask: url(#mask-1);
      }

      .cls-3 {
        fill: #c6003d;
      }

      .cls-4 {
        fill: #fff;
      }
    </style>
    <clipPath id="clippath">
      <rect class="cls-2" width="144" height="35"/>
    </clipPath>
    <mask id="mask" x="-64.5" y="6" width="152.86" height="76" maskUnits="userSpaceOnUse">
      <g id="mask0_16974_39934" data-name="mask0 16974 39934">
        <path class="cls-4" d="m-64.5,82H88.36V6H-64.5v76Z"/>
      </g>
    </mask>
    <mask id="mask-1" x="-64.5" y="5.95" width="152.86" height="76.05" maskUnits="userSpaceOnUse">
      <g id="mask1_16974_39934" data-name="mask1 16974 39934">
        <path class="cls-4" d="m-64.5,82H88.36V6H-64.5v76Z"/>
      </g>
    </mask>
  </defs>
  <g class="cls-1">
    <g>
      <path class="cls-3" d="m135.01,28.28c-1.43-.75-1.65-2.89-1.62-8.07l.03-7.95h-2.73s.63-1.47.63-1.47h2.1v-3.76l5.02-1.88v5.52h2.32s-.6,1.63-.6,1.63h-1.72s0,13.75,0,13.75c.1,1.11.48,1.76.99,2.24h-4.42Z"/>
      <path class="cls-3" d="m10.59,13.24c.51,1.42,1.7,2.89.85,4.54-.38,1.68-1.96,3.03-3.61,3.3-1.74.16-3.36-.14-4.68-1.2-.89-4.84,1.06-9.31,4.85-11.98l2.59,5.34Z"/>
      <g class="cls-5">
        <path class="cls-3" d="m17.27,27.98c-.85,2.93-9.4,1.01-12.08-3.8,3.53.4,7.48-2.76,7.57-6.35l4.51,10.15Z"/>
      </g>
      <g class="cls-6">
        <path class="cls-3" d="m20.8,27.6c.38-.18,1.15-.57,1.36-1.42L12.97,6c-.64-.08-1.06-.13-1.87.43l9.69,21.17Z"/>
      </g>
      <path class="cls-3" d="m24.92,23.22c3.91-5.99.64-15.82-7.82-17.2l7.82,17.2Z"/>
      <path class="cls-3" d="m95.58,11.4c.92-.78,2.54-.8,3.59-.3.45.22.86.52,1.14.92l-2.03,3.19c-.25-.21-.45-.3-.76-.47-1.02-.44-2.07-.18-2.67.37v9.3c-.03,1.61.25,3.08,1.08,3.84h-4.61c-.99-.75-1.21-1.94-1.3-2.98l-.03-12.37c.03-1-.22-1.44-.6-2l4.77.02c.38.28.41.76.6,1.14l.83-.65Z"/>
      <path class="cls-3" d="m101.4,14.45c-.03-1.18.22-2.58-.54-3.6h4.42c.32.22.48.6.57.95.25.31.22.76.32,1.14l.06,13.18c.16.78.48,1.57,1.05,2.19h-4.74c-1.56-1.51-1.05-4-1.18-6.57l.03-7.28Z"/>
      <path class="cls-3" d="m108.43,14.58c.48-1.34,1.97-2.01,3.05-2.74,1.65-.61,3.5-2.14,5.34-.89,1.56,1.02,2.93,2.18,3.91,3.76.22.61.35,1.3.51,1.96,0,.88.19,1.53.16,2.41.06.95.06,1.81,0,2.74-.06,1.58-.79,3-2.04,4.1-1.84,1.66-4.17,3.54-6.68,2.25-2.26-1.06-4.9-3.17-4.74-6.06-.1-2.05-.19-3.82.1-5.81.1-.58.06-1.21.38-1.72Zm4.61,9.32c.22.82.64,1.83,1.62,1.94.57.02.99-.47,1.34-.88,1.02-2.05.86-4.28.86-6.62-.32-1.73.1-4.1-1.75-5.16-.67-.24-1.15.21-1.56.62-.73,1.1-.79,2.36-.86,3.75-.22,2.24.03,4.09.35,6.34Z"/>
      <path class="cls-3" d="m124.68,28.28c-1.43-.75-1.65-2.89-1.62-8.07l.03-7.95h-2.7s.6-1.47.6-1.47h2.1v-3.76l5.06-1.88v5.52h2.29s-.6,1.63-.6,1.63h-1.68s0,13.75,0,13.75c.09,1.11.48,1.76.99,2.24h-4.45Z"/>
      <path class="cls-3" d="m78.64,12.9c-.03-1-.22-1.44-.6-2l4.77.02c.38.28.41.76.6,1.14l.83-.65c.92-.78,2.54-.8,3.59-.3.45.22.86.52,1.14.92l-2.03,3.19c-.25-.21-.45-.3-.76-.47-1.02-.44-2.07-.18-2.67.37v9.3c-.03,1.61.25,3.08,1.08,3.84h-4.61c-.95-.75-1.24-1.85-1.3-2.98l-.03-12.37Z"/>
      <path class="cls-3" d="m42.49,17.79l-1.72,3.61c-1.21,2.13-2.86,4.74-5.41,5.39-.99.35-1.88.03-2.83-.04l-3.08,5.09c.25.25.57.46.89.58,5.41,2.09,7.6-.16,12.91-12.33l5.06,10.85h6.71l-3.18-7.32,1.81-3.78,4.96,10.94,6.42.04-11.26-24.95-5.18,2.6,4.07,9.31-1.78,3.66-7.44-16.21-5.44,2.81,4.48,9.76Z"/>
      <path class="cls-3" d="m63.12,22.19c.13-1.81,1.11-3.5,2.77-4.42,1.65-1.03,3.56-1.44,5.28-2.33.29-.24.64-.54.67-.93.03-.48-.22-.86-.64-1.02-2.61-.56-4.74,1.08-6.61,2.7.22-1.19.41-2.5.99-3.61.25-.3.45-.71.79-.93,1.84-.92,4.13-1.18,6.17-1.03,1.69.11,3.24,1.32,3.82,2.87.29.73.25,1.55.32,2.29l.03,10.1c0,.87.41,1.7.92,2.4h-4.77c-.57-.52-.86-1.18-1.02-1.99-1.34,1.19-4.13,2.96-5.79,1.79-1.72-.78-3.31-3.41-2.92-5.89Zm8.46-3.51c-.03-.7-.51-.77-.86-.77-1.14.17-2.13,1.13-2.7,2.13-.48.88-.6,1.63-.64,2.4,0,.84-.06,1.45.29,2.09.19.41.57.6.99.71.73.15,1.4-.05,1.97-.45,1.37-.76,1.11-2.29,1.14-3.65l-.19-2.45Z"/>
      <path class="cls-3" d="m140.03,26.77c0-1.03.83-1.8,1.81-1.8s1.81.76,1.81,1.8-.83,1.8-1.81,1.8-1.81-.76-1.81-1.8Zm1.81,1.5c.83,0,1.46-.64,1.46-1.5s-.64-1.5-1.46-1.5-1.46.65-1.46,1.5.67,1.5,1.46,1.5Zm-.38-.46h-.29v-2.07h.76c.48,0,.73.18.73.59,0,.37-.22.53-.54.57l.6.91h-.35l-.54-.9h-.38v.9Zm.38-1.17c.25,0,.51-.02.51-.34,0-.26-.22-.31-.45-.31h-.44v.64h.38Z"/>
    </g>
  </g>
</svg>