<svg width="63" height="84" viewBox="0 0 63 84" fill="none" xmlns="http://www.w3.org/2000/svg">
<path d="M12.8975 40.2522L10.6328 42.8047L13.1978 45.171L15.4625 42.6185L12.8975 40.2522Z" fill="#A556CB"/>
<path d="M3.21779 40.6312L0.953125 43.1836L3.51818 45.5499L5.78285 42.9975L3.21779 40.6312Z" fill="#A556CB"/>
<path d="M5.73732 42.9632L3.47266 45.5156L6.03771 47.8819L8.30237 45.3295L5.73732 42.9632Z" fill="#A556CB"/>
<path d="M8.25682 45.2913L5.99219 47.8438L8.55724 50.2101L10.8219 47.6577L8.25682 45.2913Z" fill="#A556CB"/>
<path d="M10.7685 47.6155L8.50391 50.168L11.069 52.5343L13.3336 49.9819L10.7685 47.6155Z" fill="#A556CB"/>
<path d="M12.5146 30.557L10.25 33.1094L12.8151 35.4757L15.0797 32.9233L12.5146 30.557Z" fill="#A556CB"/>
<path d="M15.0303 32.8851L12.7656 35.4375L15.3307 37.8038L17.5953 35.2514L15.0303 32.8851Z" fill="#A556CB"/>
<path d="M17.5498 35.2132L15.2852 37.7656L17.8501 40.1319L20.1148 37.5795L17.5498 35.2132Z" fill="#A556CB"/>
<path d="M20.0693 37.5452L17.8047 40.0977L20.3697 42.464L22.6344 39.9116L20.0693 37.5452Z" fill="#A556CB"/>
<path d="M25.1236 42.2491L22.5586 39.8828L20.2939 42.4352L22.859 44.8015L25.1236 42.2491Z" fill="#A556CB"/>
<path d="M22.7954 44.7608L20.2305 42.3945L17.9658 44.947L20.5308 47.3132L22.7954 44.7608Z" fill="#A556CB"/>
<path d="M20.4713 47.2843L17.9062 44.918L15.6416 47.4704L18.2066 49.8368L20.4713 47.2843Z" fill="#A556CB"/>
<path d="M18.1471 49.8039L15.582 47.4375L13.3174 49.9899L15.8825 52.3563L18.1471 49.8039Z" fill="#A556CB"/>
<path d="M12.7291 35.4483L10.1641 33.082L7.89939 35.6345L10.4644 38.0008L12.7291 35.4483Z" fill="#A556CB"/>
<path d="M10.4087 37.9679L7.84375 35.6016L5.57915 38.154L8.14414 40.5203L10.4087 37.9679Z" fill="#A556CB"/>
<path d="M8.08068 40.4835L5.51562 38.1172L3.25099 40.6696L5.81604 43.036L8.08068 40.4835Z" fill="#A556CB"/>
<path d="M13.2881 49.9554L11.0234 52.5078L13.5885 54.8741L15.8531 52.3217L13.2881 49.9554Z" fill="#A556CB"/>
<path d="M39.4552 38.7202L37.1836 41.2422L39.7432 43.6406L42.0148 41.1186L39.4552 38.7202Z" fill="#A556CB"/>
<path d="M39.6583 43.5679L37.3867 46.0898L39.9464 48.4882L42.218 45.9663L39.6583 43.5679Z" fill="#A556CB"/>
<path d="M47.1974 50.5523L44.9258 53.0742L47.4855 55.4725L49.7571 52.9506L47.1974 50.5523Z" fill="#A556CB"/>
<path d="M16.6935 26.0367L14.4219 28.5586L16.9816 30.9569L19.2532 28.435L16.6935 26.0367Z" fill="#A556CB"/>
<path d="M19.213 28.3687L16.9414 30.8906L19.5011 33.289L21.7727 30.767L19.213 28.3687Z" fill="#A556CB"/>
<path d="M29.3927 41.0757L27.1211 43.5977L29.6807 45.996L31.9524 43.474L29.3927 41.0757Z" fill="#A556CB"/>
<path d="M44.299 38.5289L42.0273 41.0508L44.587 43.4491L46.8587 40.9272L44.299 38.5289Z" fill="#A556CB"/>
<path d="M51.8537 45.5171L49.582 48.0391L52.1416 50.4373L54.4133 47.9154L51.8537 45.5171Z" fill="#A556CB"/>
<path d="M46.8146 40.8609L44.543 43.3828L47.1027 45.7812L49.3743 43.2592L46.8146 40.8609Z" fill="#A556CB"/>
<path d="M51.6583 40.6733L49.3867 43.1953L51.9464 45.5936L54.218 43.0717L51.6583 40.6733Z" fill="#A556CB"/>
<path d="M59.0721 42.8579L61.3438 40.3359L58.7841 37.9376L56.5124 40.4595L59.0721 42.8579Z" fill="#A556CB"/>
<path d="M54.2323 43.0493L56.5039 40.5273L53.9443 38.1291L51.6727 40.651L54.2323 43.0493Z" fill="#A556CB"/>
<path d="M46.6815 36.0649L48.9531 33.543L46.3935 31.1447L44.1219 33.6666L46.6815 36.0649Z" fill="#A556CB"/>
<path d="M42.6112 55.647L44.8828 53.125L42.3231 50.7266L40.0515 53.2486L42.6112 55.647Z" fill="#A556CB"/>
<path d="M49.0057 33.5454L51.2773 31.0234L48.7178 28.6251L46.4461 31.1471L49.0057 33.5454Z" fill="#A556CB"/>
<path d="M24.783 51.2407L27.0547 48.7188L24.495 46.3205L22.2234 48.8424L24.783 51.2407Z" fill="#A556CB"/>
<path d="M17.8065 58.7993L20.0781 56.2773L17.5184 53.879L15.2468 56.4009L17.8065 58.7993Z" fill="#A556CB"/>
<path d="M44.744 29.6L47.0156 27.0781L44.456 24.6799L42.1844 27.2018L44.744 29.6Z" fill="#A556CB"/>
<path d="M35.5279 39.724L42.375 32.1445L39.747 29.6679L32.8999 37.2474L35.5279 39.724Z" fill="#A556CB"/>
<path d="M51.7128 40.7172L53.9844 38.1953L51.4246 35.7969L49.153 38.3188L51.7128 40.7172Z" fill="#A556CB"/>
<path d="M46.8768 40.9087L49.1484 38.3867L46.5887 35.9884L44.3171 38.5103L46.8768 40.9087Z" fill="#A556CB"/>
<path d="M31.4873 57.4593L29.2227 60.0117L31.7877 62.3781L34.0523 59.8256L31.4873 57.4593Z" fill="#A556CB"/>
<path d="M21.8076 57.8382L19.543 60.3906L22.108 62.7569L24.3727 60.2045L21.8076 57.8382Z" fill="#A556CB"/>
<path d="M24.3232 60.1624L22.0586 62.7148L24.6236 65.0812L26.8883 62.5287L24.3232 60.1624Z" fill="#A556CB"/>
<path d="M26.8466 62.4945L24.582 65.0469L27.1471 67.4132L29.4117 64.8608L26.8466 62.4945Z" fill="#A556CB"/>
<path d="M29.3545 64.8303L27.0898 67.3828L29.6549 69.7492L31.9195 67.1967L29.3545 64.8303Z" fill="#A556CB"/>
<path d="M31.1045 47.764L28.8398 50.3164L31.4049 52.6827L33.6695 50.1303L31.1045 47.764Z" fill="#A556CB"/>
<path d="M33.6201 50.0921L31.3555 52.6445L33.9205 55.0108L36.1851 52.4584L33.6201 50.0921Z" fill="#A556CB"/>
<path d="M36.1357 52.4163L33.8711 54.9688L36.436 57.335L38.7007 54.7826L36.1357 52.4163Z" fill="#A556CB"/>
<path d="M38.6474 54.7523L36.3828 57.3047L38.9478 59.671L41.2124 57.1185L38.6474 54.7523Z" fill="#A556CB"/>
<path d="M43.7018 59.4522L41.1367 57.0859L38.8721 59.6383L41.4372 62.0046L43.7018 59.4522Z" fill="#A556CB"/>
<path d="M41.3814 61.9717L38.8164 59.6055L36.5518 62.1579L39.1168 64.5241L41.3814 61.9717Z" fill="#A556CB"/>
<path d="M39.061 64.4873L36.4961 62.1211L34.2315 64.6735L36.7964 67.0397L39.061 64.4873Z" fill="#A556CB"/>
<path d="M36.733 67.003L34.168 64.6367L31.9033 67.1891L34.4684 69.5554L36.733 67.003Z" fill="#A556CB"/>
<path d="M31.3151 52.6593L28.75 50.293L26.4854 52.8453L29.0504 55.2116L31.3151 52.6593Z" fill="#A556CB"/>
<path d="M28.9908 55.1671L26.4258 52.8008L24.1611 55.3532L26.7262 57.7195L28.9908 55.1671Z" fill="#A556CB"/>
<path d="M26.6704 57.6905L24.1055 55.3242L21.8408 57.8767L24.4058 60.2429L26.6704 57.6905Z" fill="#A556CB"/>
<path d="M31.8701 67.1546L29.6055 69.707L32.1704 72.0733L34.435 69.5208L31.8701 67.1546Z" fill="#A556CB"/>
<path d="M30.542 21.1312L28.2773 23.6836L30.8423 26.0498L33.107 23.4975L30.542 21.1312Z" fill="#A556CB"/>
<path d="M20.8623 21.5101L18.5977 24.0625L21.1627 26.4288L23.4273 23.8764L20.8623 21.5101Z" fill="#A556CB"/>
<path d="M23.3779 23.8343L21.1133 26.3867L23.6783 28.753L25.943 26.2006L23.3779 23.8343Z" fill="#A556CB"/>
<path d="M25.8935 26.1625L23.6289 28.7148L26.194 31.0812L28.4586 28.5288L25.8935 26.1625Z" fill="#A556CB"/>
<path d="M28.4131 28.4945L26.1484 31.0469L28.7134 33.4131L30.978 30.8607L28.4131 28.4945Z" fill="#A556CB"/>
<path d="M30.1592 11.4359L27.8945 13.9883L30.4595 16.3546L32.7241 13.8021L30.1592 11.4359Z" fill="#A556CB"/>
<path d="M32.6748 13.764L30.4102 16.3164L32.9752 18.6827L35.2398 16.1303L32.6748 13.764Z" fill="#A556CB"/>
<path d="M35.1904 16.0882L32.9258 18.6406L35.4908 21.0069L37.7554 18.4545L35.1904 16.0882Z" fill="#A556CB"/>
<path d="M37.7061 18.4163L35.4414 20.9688L38.0065 23.3351L40.2711 20.7826L37.7061 18.4163Z" fill="#A556CB"/>
<path d="M42.7643 23.1281L40.1992 20.7617L37.9346 23.3141L40.4996 25.6805L42.7643 23.1281Z" fill="#A556CB"/>
<path d="M40.4401 25.6359L37.875 23.2695L35.6104 25.8219L38.1754 28.1882L40.4401 25.6359Z" fill="#A556CB"/>
<path d="M38.1158 28.1554L35.5508 25.7891L33.2861 28.3415L35.8512 30.7078L38.1158 28.1554Z" fill="#A556CB"/>
<path d="M35.7916 30.6788L33.2266 28.3125L30.9619 30.8649L33.5269 33.2312L35.7916 30.6788Z" fill="#A556CB"/>
<path d="M30.3736 16.3194L27.8086 13.9531L25.544 16.5055L28.109 18.8718L30.3736 16.3194Z" fill="#A556CB"/>
<path d="M28.0533 18.8429L25.4883 16.4766L23.2237 19.029L25.7887 21.3953L28.0533 18.8429Z" fill="#A556CB"/>
<path d="M25.7292 21.3624L23.1641 18.9961L20.8994 21.5485L23.4645 23.9148L25.7292 21.3624Z" fill="#A556CB"/>
<path d="M30.9326 30.8226L28.668 33.375L31.2329 35.7413L33.4976 33.1889L30.9326 30.8226Z" fill="#A556CB"/>
</svg>
