<?xml version="1.0" encoding="UTF-8"?>
<svg id="Layer_1" data-name="Layer 1" xmlns="http://www.w3.org/2000/svg" viewBox="0 0 63.88 63.88">
  <defs>
    <style>
      .cls-1 {
        fill: #fff;
      }

      .cls-1, .cls-2 {
        stroke-width: 0px;
      }

      .cls-2 {
        fill: #00704a;
      }
    </style>
  </defs>
  <path class="cls-1" d="m31.94,63.88c17.64,0,31.94-14.3,31.94-31.94S49.58,0,31.94,0,0,14.3,0,31.94s14.3,31.94,31.94,31.94Z"/>
  <path class="cls-2" d="m35.15,13.81c-.28-.05-1.63-.28-3.21-.28s-2.93.23-3.21.28c-.16.03-.22-.13-.1-.22.11-.08,3.31-2.52,3.31-2.52l3.31,2.52c.12.09.06.25-.1.22Zm-5.53,15.81s-.17.06-.21.21c.67.52,1.13,1.69,2.53,1.69s1.86-1.17,2.53-1.69c-.04-.15-.21-.21-.21-.21,0,0-.88.21-2.32.21s-2.32-.21-2.32-.21Zm2.32-1.97c-.39,0-.47-.15-.74-.15-.25,0-.74.2-.85.39,0,.09.04.18.11.25.57.09.82.4,1.48.4s.91-.32,1.48-.4c.07-.07.1-.16.11-.25-.11-.18-.6-.38-.85-.39-.27,0-.35.15-.74.15Zm31.89,6.04c-.04.76-.11,1.52-.2,2.27-3.62.6-4.91-2.62-8.61-2.46.22.79.4,1.59.54,2.4,3.05,0,4.28,2.85,7.68,2.43-.18.87-.39,1.73-.64,2.58-2.69.26-3.63-2.41-6.74-2.33.03.44.04.89.04,1.34v.75s6.03,2.3,6.03,2.3c-.32.86-.67,1.7-1.05,2.52-1.81-.1-2.44-2.43-5.2-2.24-.08.6-.19,1.19-.31,1.77,2.4-.17,2.91,2.04,4.63,2.22-.44.8-.91,1.58-1.41,2.33-1.02-.54-1.9-2.19-3.83-2.29.2-.61.37-1.23.52-1.86-1.71,0-3.67-.67-5.31-2.16.53-3.03-4.17-6.11-4.17-8.33,0-2.41,1.22-3.74,1.22-6.99,0-2.41-1.17-5.03-2.94-6.81-.34-.35-.69-.63-1.09-.88,1.62,2.01,2.87,4.39,2.87,7.15,0,3.06-1.42,4.67-1.42,7.5s4.13,5.27,4.13,8.18c0,1.15-.37,2.26-1.57,4.46,1.85,1.85,4.27,2.86,5.83,2.86.51,0,.78-.15.96-.55.16-.34.3-.69.44-1.04,1.68.06,2.45,1.59,3.38,2.2-.51.68-1.05,1.35-1.61,1.99-.62-.69-1.46-1.85-2.68-2.17-.22.43-.45.85-.7,1.26,1.05.29,1.78,1.35,2.34,2.05-.6.62-1.23,1.22-1.88,1.8-.41-.63-1.04-1.44-1.75-1.87-.26.36-.54.7-.82,1.04.6.41,1.14,1.15,1.49,1.75-.75.6-1.53,1.18-2.34,1.71-.4-3.24-4.83-5.47-3.63-9.23-.39.66-.86,1.49-.86,2.49,0,2.72,2.9,4.89,3.13,7.59-.6.36-1.22.7-1.84,1.02-.1-2.98-3.18-6.23-3.18-8.67,0-2.73,3.57-5.46,3.57-8.68s-4.12-5.45-4.12-8.28,1.75-4.45,1.75-8.07c0-2.65-1.26-5.34-3.21-7.05-.34-.3-.68-.55-1.09-.76,1.84,2.2,2.9,4.2,2.9,7.23,0,3.41-2.01,5.3-2.01,8.63s4.04,5.19,4.04,8.3-3.76,5.73-3.76,8.92c0,2.91,3.32,5.8,3.37,9.25-.72.32-1.46.6-2.22.87.42-3.48-3.31-7.07-3.31-9.91,0-3.11,3.9-5.78,3.9-9.13s-3.97-4.91-3.97-8.35,2.43-5.34,2.43-9.14c0-2.96-1.46-5.62-3.6-7.27l-.14-.1c-.2-.15-.37.03-.22.21,1.51,1.89,2.32,3.8,2.32,6.62,0,3.47-2.8,6.3-2.8,9.66,0,3.97,3.76,5.11,3.76,8.37s-4.03,5.87-4.03,9.33c0,3.21,3.81,6.77,3.16,10.47-.76.2-1.54.37-2.33.51.72-4.61-3.02-7.92-3.02-10.94,0-3.27,4.17-6.18,4.17-9.37,0-3.01-2.99-3.99-3.39-7.07-.05-.42-.39-.73-.86-.65-.61.11-1.39.51-2.61.51s-2-.4-2.61-.51c-.46-.08-.8.24-.86.65-.39,3.08-3.39,4.06-3.39,7.07,0,3.19,4.17,6.1,4.17,9.37,0,3.02-3.74,6.33-3.02,10.94-.79-.14-1.56-.31-2.33-.51-.65-3.7,3.16-7.26,3.16-10.47,0-3.46-4.03-6.07-4.03-9.33s3.76-4.4,3.76-8.37c0-3.37-2.8-6.19-2.8-9.66,0-2.83.81-4.73,2.32-6.62.14-.18-.02-.36-.23-.21l-.13.1c-2.13,1.65-3.59,4.31-3.59,7.27,0,3.8,2.43,5.7,2.43,9.14s-3.97,5-3.97,8.35,3.9,6.02,3.9,9.12c0,2.84-3.73,6.43-3.31,9.91-.75-.26-1.49-.55-2.22-.87.05-3.45,3.36-6.35,3.36-9.25,0-3.19-3.76-5.81-3.76-8.92s4.04-4.96,4.04-8.3-2.01-5.22-2.01-8.63c0-3.03,1.06-5.03,2.9-7.23-.41.21-.75.45-1.09.76-1.95,1.71-3.21,4.4-3.21,7.05,0,3.62,1.75,5.25,1.75,8.07s-4.12,5.06-4.12,8.28,3.57,5.96,3.57,8.68c0,2.44-3.07,5.7-3.18,8.67-.63-.32-1.24-.66-1.84-1.02.23-2.71,3.13-4.87,3.13-7.59,0-1-.47-1.83-.86-2.49,1.19,3.76-3.23,5.99-3.63,9.23-.81-.54-1.59-1.11-2.34-1.71.35-.6.88-1.34,1.49-1.75-.28-.34-.56-.68-.82-1.04-.71.43-1.35,1.24-1.75,1.87-.65-.57-1.28-1.17-1.88-1.8.56-.7,1.28-1.76,2.34-2.05-.24-.41-.48-.83-.7-1.26-1.23.32-2.06,1.48-2.68,2.17-.56-.64-1.1-1.3-1.61-1.99.93-.61,1.7-2.14,3.38-2.2.14.35.29.7.44,1.04.18.4.45.55.96.55,1.56,0,3.97-1.01,5.83-2.86-1.21-2.2-1.57-3.32-1.57-4.46,0-2.91,4.13-5.35,4.13-8.18s-1.42-4.44-1.42-7.5c0-2.76,1.25-5.14,2.87-7.15-.4.25-.75.53-1.09.88-1.77,1.79-2.94,4.4-2.94,6.81,0,3.25,1.22,4.58,1.22,6.99,0,2.22-4.7,5.3-4.17,8.33-1.64,1.49-3.6,2.16-5.31,2.16.15.63.32,1.25.52,1.86-1.93.1-2.81,1.75-3.83,2.29-.5-.76-.97-1.53-1.41-2.33,1.72-.18,2.23-2.39,4.63-2.22-.13-.58-.23-1.17-.32-1.77-2.76-.19-3.39,2.14-5.2,2.24-.39-.82-.74-1.66-1.05-2.52l6.04-2.3v-.75c-.01-.45,0-.9.03-1.34-3.11-.07-4.06,2.6-6.74,2.33-.25-.85-.46-1.71-.64-2.58,3.4.42,4.63-2.43,7.68-2.43.14-.82.32-1.62.54-2.4-3.7-.16-5,3.06-8.61,2.46-.09-.75-.16-1.51-.2-2.27,4.2.47,5.78-2.98,9.6-2.56.36-.91.78-1.8,1.25-2.65-4.8-.84-6.43,3.17-10.89,2.55C.5,13.81,14.6,0,31.94,0s31.44,13.81,31.92,31.03c-4.47.62-6.09-3.39-10.89-2.55.47.85.89,1.74,1.25,2.65,3.82-.42,5.4,3.03,9.6,2.56Zm-45.62-13.39c-2.35-.96-5.2-.74-7.63.82-.38-2.26-1.6-4.27-3.35-5.48-.24-.17-.49,0-.47.27.37,4.78-2.42,8.93-5.86,12.58,3.54,1.06,6.56-3.5,11.15-1.9,1.65-2.45,3.74-4.59,6.16-6.28Zm13.73-2.89c-2.96,0-5.45,1.68-6.1,3.84-.05.17.02.27.21.19.53-.24,1.14-.35,1.8-.35,1.21,0,2.27.44,2.91,1.22.28.92.3,2.25-.01,3.01-.5-.11-.68-.5-1.16-.5s-.86.34-1.69.34-.92-.39-1.46-.39c-.64,0-.75.66-.75,1.4,0,3.3,3.04,7.85,6.27,7.85s6.26-4.55,6.26-7.85c0-.74-.15-1.38-.82-1.46-.33.24-.64.45-1.4.45-.83,0-1.05-.34-1.54-.34-.59,0-.53,1.24-1.22,1.31-.46-1.12-.49-2.55-.1-3.82.63-.77,1.7-1.22,2.91-1.22.66,0,1.27.12,1.8.35.19.09.26-.02.21-.19-.65-2.17-3.13-3.84-6.1-3.84Zm4.72,4.74c-.71,0-1.54.22-2.07.8-.05.16-.05.39.02.55,1.29-.44,2.43-.46,2.98.16.29-.27.39-.51.39-.78,0-.43-.44-.73-1.32-.73Zm-10.37,1.51c.62-.62,1.93-.6,3.29-.09.06-.68-1.15-1.42-2.36-1.42-.88,0-1.32.3-1.32.73,0,.28.09.52.39.78Zm20.43-11.18c-2.34.17-4.37.97-6.02,2.31.7-1.98,1.59-3.71,2.71-5.39-2.98.32-5.47,1.41-7.29,3.27l-1.42-3.73,3.16-2.79-4.23-.3-1.69-3.93-1.69,3.93-4.23.3,3.16,2.79-1.42,3.73c-1.82-1.86-4.31-2.95-7.29-3.27,1.12,1.68,2.01,3.41,2.71,5.39-1.64-1.34-3.68-2.14-6.02-2.31,1.4,1.81,2.65,3.73,3.57,5.8.1.23.33.31.57.19,3.21-1.59,6.82-2.49,10.64-2.49s7.43.9,10.64,2.49c.24.12.47.04.57-.19.92-2.07,2.17-3.99,3.57-5.8Zm5.11,14.11c4.59-1.59,7.61,2.97,11.15,1.9-3.44-3.65-6.23-7.8-5.86-12.58.02-.28-.23-.44-.47-.27-1.75,1.21-2.98,3.22-3.35,5.48-2.43-1.56-5.28-1.78-7.63-.82,2.42,1.69,4.51,3.83,6.16,6.28Z"/>
</svg>