<?xml version="1.0" encoding="UTF-8"?>
<svg id="Layer_1" data-name="Layer 1" xmlns="http://www.w3.org/2000/svg" xmlns:xlink="http://www.w3.org/1999/xlink" viewBox="0 0 55.63 66">
  <defs>
    <style>
      .cls-1 {
        clip-path: url(#clippath);
      }

      .cls-2 {
        fill: none;
      }

      .cls-2, .cls-3, .cls-4 {
        stroke-width: 0px;
      }

      .cls-3 {
        fill: #301506;
        fill-rule: evenodd;
      }

      .cls-4 {
        fill: #fab80a;
      }
    </style>
    <clipPath id="clippath">
      <rect class="cls-2" width="55.63" height="66"/>
    </clipPath>
  </defs>
  <g class="cls-1">
    <g>
      <path class="cls-3" d="m1.9,19.95l.24,26.8,6.02,7.44,18.06,9.56,22.2-10.86,4.6-10.98-.47-35.54-16.77-.47-17.47,2.83L2.37,17.94l-.47,2.01Z"/>
      <path class="cls-4" d="m27.76.58C17.24.58,8.06,2.62.48,6.64v32.12c0,6.76,2.54,12.41,7.34,16.35,4.46,3.66,18.25,9.69,19.94,10.42,1.6-.7,15.56-6.82,19.95-10.42,4.8-3.93,7.34-9.59,7.34-16.35V6.64C47.46,2.62,38.28.58,27.76.58h0Zm15.58,6.22c3.14.04,6.22.23,9.2.51v31.44c0,6.04-2.19,10.92-6.42,14.41-3.78,3.11-15.17,8.22-18.35,9.62-3.22-1.42-14.65-6.59-18.36-9.62-4.21-3.42-6.42-8.42-6.42-14.41v-18.37C15.07,9.3,29.74,6.62,43.34,6.8h0Zm-14.87,14.64c-2.59,0-4.68.58-6.4,1.69v30.93h4.75v-9.99c.47.14,1.16.27,2.14.27,5.27,0,8.29-4.75,8.29-11.68s-3.12-11.22-8.78-11.22Zm16.22,0c-3.12.09-6.39,2.35-6.37,6.19,0,2.53.71,4.41,4.62,6.71,2.09,1.23,2.93,2.03,2.97,3.52.04,1.66-1.1,2.65-2.85,2.65-1.51-.01-3.33-.85-4.54-1.93v4.37c1.49.89,3.34,1.47,5.22,1.47,4.69,0,6.79-3.31,6.88-6.35.09-2.77-.68-4.86-4.64-7.19-1.77-1.04-3.17-1.72-3.12-3.45.05-1.69,1.45-2.28,2.79-2.27,1.66.01,3.26.93,4.25,1.95v-4.13c-.83-.64-2.6-1.62-5.21-1.54Zm-39.29.48v14.92c0,5.03,2.38,7.58,7.08,7.58,2.91,0,5.34-.67,7.15-1.91v-20.59h-4.74v17.89c-.52.35-1.28.58-2.25.58-2.18,0-2.5-1.99-2.5-3.34v-15.13h-4.74Zm23.09,3.34c2.75,0,3.9,2.2,3.9,7.52s-1.31,7.7-4.04,7.7c-.64,0-1.2-.16-1.54-.29v-14.58c.38-.19,1.04-.34,1.68-.34Z"/>
    </g>
  </g>
</svg>