<?xml version="1.0" encoding="UTF-8"?>
<svg id="Layer_1" data-name="Layer 1" xmlns="http://www.w3.org/2000/svg" xmlns:xlink="http://www.w3.org/1999/xlink" viewBox="0 0 169 40">
  <defs>
    <style>
      .cls-1 {
        clip-path: url(#clippath);
      }

      .cls-2 {
        fill: none;
      }

      .cls-2, .cls-3, .cls-4 {
        stroke-width: 0px;
      }

      .cls-3 {
        fill: #ffc220;
      }

      .cls-4 {
        fill: #0071ce;
      }
    </style>
    <clipPath id="clippath">
      <rect class="cls-2" width="169" height="40"/>
    </clipPath>
  </defs>
  <g class="cls-1">
    <g>
      <path class="cls-4" d="m98.02,21.29c0-3.95-1.71-7.44-7.51-7.44-2.97,0-5.33.84-6.61,1.57l.94,3.17c1.18-.73,3.06-1.33,4.83-1.33,2.93,0,3.41,1.63,3.41,2.69v.25c-6.4-.01-10.45,2.17-10.45,6.62,0,2.72,2.05,5.26,5.65,5.26,2.19,0,4.04-.87,5.15-2.25h.11s.73,3.01,4.76,1.86c-.21-1.26-.28-2.59-.28-4.21v-6.2Zm-4.78,4.17c0,.32-.03.65-.12.93-.37,1.22-1.64,2.23-3.22,2.23-1.34,0-2.38-.75-2.38-2.31,0-2.39,2.68-3.05,5.73-3.03"/>
      <path class="cls-4" d="m0,8.47s4.18,16.89,4.85,19.62c.78,3.2,2.19,4.38,6.23,3.59l2.61-10.47c.66-2.59,1.11-4.46,1.54-7.1h.07c.3,2.67.72,4.5,1.26,7.11,0,0,1.07,4.76,1.62,7.25.54,2.49,2.05,4.06,6.03,3.21l6.22-23.22h-5.02l-2.14,10.04c-.57,2.91-1.08,5.2-1.48,7.87h-.07c-.36-2.64-.82-4.84-1.41-7.69l-2.21-10.23h-5.24l-2.36,9.96c-.67,3.04-1.3,5.48-1.7,8.06h-.07c-.41-2.42-.96-5.51-1.55-8.44,0,0-1.4-7.13-1.9-9.59"/>
      <path class="cls-4" d="m44.43,21.29c0-3.95-1.72-7.44-7.51-7.44-2.96,0-5.33.84-6.61,1.57l.94,3.17c1.17-.73,3.05-1.33,4.83-1.33,2.93,0,3.41,1.63,3.41,2.69v.25c-6.4-.01-10.45,2.17-10.45,6.62,0,2.72,2.06,5.26,5.64,5.26,2.21,0,4.05-.87,5.15-2.25h.11s.73,3.01,4.76,1.86c-.21-1.26-.28-2.59-.28-4.21v-6.2Zm-4.78,4.17c0,.32-.03.65-.12.93-.37,1.22-1.64,2.23-3.23,2.23-1.33,0-2.38-.75-2.38-2.31,0-2.39,2.68-3.05,5.73-3.03"/>
      <path class="cls-4" d="m47.04,8.47v23.21h4.78V8.47h-4.78Z"/>
      <path class="cls-4" d="m112.69,8.47v17.12c0,2.36.45,4.01,1.42,5.02.85.89,2.24,1.46,3.89,1.46,1.42,0,2.81-.27,3.47-.5l-.06-3.69c-.49.11-1.05.21-1.82.21-1.63,0-2.17-1.02-2.17-3.14v-6.56h4.16v-4.43h-4.16v-5.49"/>
      <path class="cls-4" d="m100.34,14.25v17.44h4.94v-8.93c0-.48.03-.9.11-1.28.37-1.88,1.82-3.08,3.9-3.08.58,0,.98.06,1.42.13v-4.57c-.37-.07-.62-.1-1.07-.1-1.85,0-3.95,1.16-4.83,3.68h-.12v-3.3"/>
      <path class="cls-4" d="m54.59,14.25v17.44h4.82v-10.24c0-.48.05-.97.23-1.41.39-1.04,1.36-2.24,2.92-2.24,1.94,0,2.85,1.62,2.85,3.95v9.94h4.8v-10.36c0-.45.06-1.01.2-1.41.39-1.18,1.44-2.12,2.89-2.12,1.96,0,2.91,1.58,2.91,4.33v9.56h4.8v-10.28c0-5.4-2.78-7.54-5.94-7.54-1.39,0-2.5.34-3.49.94-.84.51-1.58,1.23-2.24,2.17h-.07c-.76-1.88-2.55-3.11-4.88-3.11-2.99,0-4.35,1.49-5.15,2.75h-.07v-2.36"/>
      <path class="cls-3" d="m147.45,13.47c.94,0,1.74-.49,1.84-1.11l.94-10.47c0-1.04-1.24-1.89-2.78-1.89s-2.78.85-2.78,1.89l.94,10.47c.1.63.89,1.11,1.84,1.11Z"/>
      <path class="cls-3" d="m141.7,16.74c.47-.82.44-1.73-.06-2.13l-8.74-6.03c-.91-.52-2.27.1-3.05,1.42-.78,1.32-.62,2.8.27,3.31l9.68,4.43c.62.23,1.43-.2,1.91-1.01"/>
      <path class="cls-3" d="m153.19,16.73c.5.81,1.31,1.24,1.91,1.02l9.68-4.44c.9-.52,1.03-1.99.27-3.31-.78-1.32-2.15-1.94-3.05-1.43l-8.74,6.03c-.49.41-.52,1.32-.05,2.14"/>
      <path class="cls-3" d="m147.45,26.54c.94,0,1.74.49,1.84,1.11l.94,10.47c0,1.04-1.24,1.88-2.78,1.88s-2.78-.84-2.78-1.88l.94-10.47c.1-.63.89-1.11,1.84-1.11Z"/>
      <path class="cls-3" d="m153.19,23.28c.5-.81,1.31-1.25,1.91-1.01l9.68,4.43c.9.51,1.03,1.99.27,3.31-.78,1.31-2.15,1.93-3.05,1.42l-8.74-6.04c-.49-.41-.52-1.31-.05-2.12"/>
      <path class="cls-3" d="m141.7,23.27c.47.82.44,1.72-.06,2.13l-8.74,6.03c-.91.52-2.27-.1-3.05-1.41-.78-1.32-.62-2.8.27-3.31l9.68-4.43c.62-.23,1.43.2,1.91,1Z"/>
      <path class="cls-3" d="m167.61,30.51h.12c.16,0,.23.05.25.18.04.14.05.24.09.28h.31s-.06-.11-.08-.29c-.04-.16-.12-.24-.23-.27v-.03c.16-.03.25-.14.25-.27,0-.12-.05-.2-.11-.25-.1-.05-.2-.09-.42-.09-.19,0-.34.02-.45.04v1.16h.28v-.46Zm0-.53l.14-.02c.17,0,.25.08.25.18,0,.12-.12.17-.27.17h-.12v-.34Zm.18-.79c-.68,0-1.22.52-1.22,1.17s.54,1.18,1.22,1.18,1.21-.52,1.21-1.18-.52-1.17-1.21-1.17Zm0,.24c.52,0,.91.42.91.93s-.39.95-.91.94c-.52,0-.92-.42-.92-.94s.4-.93.91-.93"/>
    </g>
  </g>
</svg>